<mxfile host="65bd71144e">
    <diagram id="O1mhZUefbawHz_TVxVCH" name="Page-1">
        <mxGraphModel dx="598" dy="506" grid="0" gridSize="10" guides="1" tooltips="1" connect="1" arrows="1" fold="1" page="1" pageScale="1" pageWidth="850" pageHeight="1100" math="0" shadow="0">
            <root>
                <mxCell id="0"/>
                <mxCell id="1" parent="0"/>
                <mxCell id="8" value="" style="fillColor=#dae8fc;strokeColor=#6c8ebf;dashed=1;verticalAlign=top;fontStyle=0;whiteSpace=wrap;html=1;" vertex="1" parent="1">
                    <mxGeometry x="190" y="144" width="223" height="51" as="geometry"/>
                </mxCell>
                <mxCell id="9" style="edgeStyle=orthogonalEdgeStyle;html=1;strokeWidth=3;" edge="1" parent="1" source="2" target="7">
                    <mxGeometry relative="1" as="geometry"/>
                </mxCell>
                <mxCell id="11" value="ファイルシステム&lt;div&gt;作成&lt;/div&gt;" style="edgeLabel;html=1;align=center;verticalAlign=middle;resizable=0;points=[];fontStyle=1" vertex="1" connectable="0" parent="9">
                    <mxGeometry x="0.3589" y="1" relative="1" as="geometry">
                        <mxPoint x="-27" y="56" as="offset"/>
                    </mxGeometry>
                </mxCell>
                <mxCell id="2" value="&lt;b&gt;EC2&lt;/b&gt;" style="sketch=0;points=[[0,0,0],[0.25,0,0],[0.5,0,0],[0.75,0,0],[1,0,0],[0,1,0],[0.25,1,0],[0.5,1,0],[0.75,1,0],[1,1,0],[0,0.25,0],[0,0.5,0],[0,0.75,0],[1,0.25,0],[1,0.5,0],[1,0.75,0]];outlineConnect=0;fontColor=#232F3E;fillColor=#ED7100;strokeColor=#ffffff;dashed=0;verticalLabelPosition=bottom;verticalAlign=top;align=center;html=1;fontSize=12;fontStyle=0;aspect=fixed;shape=mxgraph.aws4.resourceIcon;resIcon=mxgraph.aws4.ec2;" vertex="1" parent="1">
                    <mxGeometry x="190" y="287" width="50" height="50" as="geometry"/>
                </mxCell>
                <mxCell id="10" style="edgeStyle=none;html=1;strokeWidth=3;" edge="1" parent="1" source="3" target="7">
                    <mxGeometry relative="1" as="geometry"/>
                </mxCell>
                <mxCell id="12" value="&lt;span&gt;マウント&lt;/span&gt;" style="edgeLabel;html=1;align=center;verticalAlign=middle;resizable=0;points=[];fontStyle=1" vertex="1" connectable="0" parent="10">
                    <mxGeometry x="0.1444" y="-2" relative="1" as="geometry">
                        <mxPoint x="-4" y="-15" as="offset"/>
                    </mxGeometry>
                </mxCell>
                <mxCell id="3" value="&lt;b&gt;EBS&lt;/b&gt;" style="sketch=0;points=[[0,0,0],[0.25,0,0],[0.5,0,0],[0.75,0,0],[1,0,0],[0,1,0],[0.25,1,0],[0.5,1,0],[0.75,1,0],[1,1,0],[0,0.25,0],[0,0.5,0],[0,0.75,0],[1,0.25,0],[1,0.5,0],[1,0.75,0]];outlineConnect=0;fontColor=#232F3E;fillColor=#7AA116;strokeColor=#ffffff;dashed=0;verticalLabelPosition=top;verticalAlign=bottom;align=center;html=1;fontSize=12;fontStyle=0;aspect=fixed;shape=mxgraph.aws4.resourceIcon;resIcon=mxgraph.aws4.elastic_block_store;labelPosition=center;" vertex="1" parent="1">
                    <mxGeometry x="190" y="145" width="50" height="50" as="geometry"/>
                </mxCell>
                <mxCell id="4" style="edgeStyle=none;html=1;strokeWidth=3;" edge="1" parent="1" source="3" target="2">
                    <mxGeometry relative="1" as="geometry"/>
                </mxCell>
                <mxCell id="5" value="アタッチ" style="edgeLabel;html=1;align=center;verticalAlign=middle;resizable=0;points=[];fontStyle=1;fontSize=11;" vertex="1" connectable="0" parent="4">
                    <mxGeometry x="-0.4182" relative="1" as="geometry">
                        <mxPoint x="-30" y="16" as="offset"/>
                    </mxGeometry>
                </mxCell>
                <mxCell id="7" value="" style="sketch=0;outlineConnect=0;fontColor=#232F3E;gradientColor=none;fillColor=#7AA116;strokeColor=none;dashed=0;verticalLabelPosition=bottom;verticalAlign=top;align=center;html=1;fontSize=12;fontStyle=0;aspect=fixed;pointerEvents=1;shape=mxgraph.aws4.file_system;" vertex="1" parent="1">
                    <mxGeometry x="353" y="149.5" width="42.73" height="40" as="geometry"/>
                </mxCell>
                <mxCell id="13" style="edgeStyle=orthogonalEdgeStyle;html=1;strokeWidth=3;" edge="1" source="20" target="22" parent="1">
                    <mxGeometry relative="1" as="geometry"/>
                </mxCell>
                <mxCell id="14" value="ファイルシステム&lt;div&gt;拡張&lt;/div&gt;" style="edgeLabel;html=1;align=center;verticalAlign=middle;resizable=0;points=[];fontStyle=1" vertex="1" connectable="0" parent="13">
                    <mxGeometry x="0.3589" y="1" relative="1" as="geometry">
                        <mxPoint x="-65" y="41" as="offset"/>
                    </mxGeometry>
                </mxCell>
                <mxCell id="15" style="edgeStyle=none;html=1;strokeWidth=3;endArrow=none;endFill=0;" edge="1" source="21" target="22" parent="1">
                    <mxGeometry relative="1" as="geometry"/>
                </mxCell>
                <mxCell id="17" style="edgeStyle=none;html=1;strokeWidth=3;endArrow=none;endFill=0;" edge="1" source="21" target="20" parent="1">
                    <mxGeometry relative="1" as="geometry"/>
                </mxCell>
                <mxCell id="20" value="&lt;b&gt;EC2&lt;/b&gt;" style="sketch=0;points=[[0,0,0],[0.25,0,0],[0.5,0,0],[0.75,0,0],[1,0,0],[0,1,0],[0.25,1,0],[0.5,1,0],[0.75,1,0],[1,1,0],[0,0.25,0],[0,0.5,0],[0,0.75,0],[1,0.25,0],[1,0.5,0],[1,0.75,0]];outlineConnect=0;fontColor=#232F3E;fillColor=#ED7100;strokeColor=#ffffff;dashed=0;verticalLabelPosition=bottom;verticalAlign=top;align=center;html=1;fontSize=12;fontStyle=0;aspect=fixed;shape=mxgraph.aws4.resourceIcon;resIcon=mxgraph.aws4.ec2;" vertex="1" parent="1">
                    <mxGeometry x="190" y="580" width="50" height="50" as="geometry"/>
                </mxCell>
                <mxCell id="21" value="&lt;b&gt;EBS&lt;/b&gt;" style="sketch=0;points=[[0,0,0],[0.25,0,0],[0.5,0,0],[0.75,0,0],[1,0,0],[0,1,0],[0.25,1,0],[0.5,1,0],[0.75,1,0],[1,1,0],[0,0.25,0],[0,0.5,0],[0,0.75,0],[1,0.25,0],[1,0.5,0],[1,0.75,0]];outlineConnect=0;fontColor=#232F3E;fillColor=#7AA116;strokeColor=#ffffff;dashed=0;verticalLabelPosition=top;verticalAlign=bottom;align=center;html=1;fontSize=12;fontStyle=0;aspect=fixed;shape=mxgraph.aws4.resourceIcon;resIcon=mxgraph.aws4.elastic_block_store;labelPosition=center;" vertex="1" parent="1">
                    <mxGeometry x="190" y="438" width="50" height="50" as="geometry"/>
                </mxCell>
                <mxCell id="22" value="" style="sketch=0;outlineConnect=0;fontColor=#232F3E;gradientColor=none;fillColor=#7AA116;strokeColor=none;dashed=0;verticalLabelPosition=bottom;verticalAlign=top;align=center;html=1;fontSize=12;fontStyle=0;aspect=fixed;pointerEvents=1;shape=mxgraph.aws4.file_system;" vertex="1" parent="1">
                    <mxGeometry x="419" y="442.5" width="42.73" height="40" as="geometry"/>
                </mxCell>
                <mxCell id="26" value="" style="endArrow=classic;html=1;edgeStyle=orthogonalEdgeStyle;strokeWidth=3;fillColor=#f8cecc;strokeColor=#b85450;" edge="1" parent="1">
                    <mxGeometry width="50" height="50" relative="1" as="geometry">
                        <mxPoint x="171.46" y="445" as="sourcePoint"/>
                        <mxPoint x="189.46" y="419" as="targetPoint"/>
                    </mxGeometry>
                </mxCell>
                <mxCell id="27" value="&lt;span&gt;ボリュームサイズ&lt;/span&gt;&lt;div&gt;&lt;span&gt;変更&lt;/span&gt;&lt;/div&gt;" style="text;html=1;align=center;verticalAlign=middle;resizable=0;points=[];autosize=1;strokeColor=none;fillColor=none;fontStyle=1" vertex="1" parent="1">
                    <mxGeometry x="86" y="447" width="112" height="41" as="geometry"/>
                </mxCell>
                <mxCell id="28" value="" style="endArrow=classic;html=1;edgeStyle=orthogonalEdgeStyle;strokeWidth=3;fillColor=#f8cecc;strokeColor=#b85450;" edge="1" parent="1">
                    <mxGeometry width="50" height="50" relative="1" as="geometry">
                        <mxPoint x="468" y="464" as="sourcePoint"/>
                        <mxPoint x="486" y="438" as="targetPoint"/>
                    </mxGeometry>
                </mxCell>
            </root>
        </mxGraphModel>
    </diagram>
</mxfile>
